<svg xmlns="http://www.w3.org/2000/svg" viewBox="0 0 2762 1603" preserveAspectRatio="xMidYMid" width="2762" height="1603" xmlns:xlink="http://www.w3.org/1999/xlink" style="shape-rendering:auto;display:block;background-position-x:0%;background-position-y:0%;background-size:auto;background-origin:padding-box;background-clip:border-box;background:scroll rgb(255, 255, 255) none  repeat;width:2762px;height:1603px;;animation:none"><g><path stroke-width="2" stroke-opacity="0" stroke="rgb(16, 93, 131)" fill="none" d="M 0 665.5 C 460 665.5 921 1354.5 1381 1354.5 C 1841 1354.5 2302 665.5 2762 665.5 C 3222 665.5 3683 1354.5 4143 1354.5 C 4603 1354.5 5064 665.5 5524 665.5" transform="matrix(1,0,0,1,0,0)" style="fill:none;stroke:rgb(16, 93, 131);transform:matrix(1, 0, 0, 1, 0, 0);;animation:none"></path>
<path stroke-width="2" stroke-opacity="0" stroke="rgb(16, 93, 131)" fill="none" d="M 0 665.579 C 460 665.579 921 1354.42 1381 1354.42 C 1841 1354.42 2302 665.579 2762 665.579 C 3222 665.579 3683 1354.42 4143 1354.42 C 4603 1354.42 5064 665.579 5524 665.579" transform="matrix(1,0,0,1,-12.792231559753418,0)" style="fill:none;stroke:rgb(16, 93, 131);transform:matrix(1, 0, 0, 1, -12.7922, 0);;animation:none"></path>
<path stroke-width="2" stroke-opacity="0" stroke="rgb(16, 93, 131)" fill="none" d="M 0 665.821 C 460 665.821 921 1354.18 1381 1354.18 C 1841 1354.18 2302 665.821 2762 665.821 C 3222 665.821 3683 1354.18 4143 1354.18 C 4603 1354.18 5064 665.821 5524 665.821" transform="matrix(1,0,0,1,-25.584821701049805,0)" style="fill:none;stroke:rgb(16, 93, 131);transform:matrix(1, 0, 0, 1, -25.5848, 0);;animation:none"></path>
<path stroke-width="2" stroke-opacity="0" stroke="rgb(16, 93, 131)" fill="none" d="M 0 666.227 C 460 666.227 921 1353.77 1381 1353.77 C 1841 1353.77 2302 666.227 2762 666.227 C 3222 666.227 3683 1353.77 4143 1353.77 C 4603 1353.77 5064 666.227 5524 666.227" transform="matrix(1,0,0,1,-38.37705612182617,0)" style="fill:none;stroke:rgb(16, 93, 131);transform:matrix(1, 0, 0, 1, -38.3771, 0);;animation:none"></path>
<path stroke-width="2" stroke-opacity="0" stroke="rgb(16, 93, 132)" fill="none" d="M 0 666.804 C 460 666.804 921 1353.2 1381 1353.2 C 1841 1353.2 2302 666.804 2762 666.804 C 3222 666.804 3683 1353.2 4143 1353.2 C 4603 1353.2 5064 666.804 5524 666.804" transform="matrix(1,0,0,1,-51.16964340209961,0)" style="fill:none;stroke:rgb(16, 93, 132);transform:matrix(1, 0, 0, 1, -51.1696, 0);;animation:none"></path>
<path stroke-width="2" stroke-opacity="0" stroke="rgb(17, 93, 132)" fill="none" d="M 0 667.555 C 460 667.555 921 1352.45 1381 1352.45 C 1841 1352.45 2302 667.555 2762 667.555 C 3222 667.555 3683 1352.45 4143 1352.45 C 4603 1352.45 5064 667.555 5524 667.555" transform="matrix(1,0,0,1,-63.96187973022461,0)" style="fill:none;stroke:rgb(17, 93, 132);transform:matrix(1, 0, 0, 1, -63.9619, 0);;animation:none"></path>
<path stroke-width="2" stroke-opacity="0" stroke="rgb(17, 94, 132)" fill="none" d="M 0 668.485 C 460 668.485 921 1351.52 1381 1351.52 C 1841 1351.52 2302 668.485 2762 668.485 C 3222 668.485 3683 1351.52 4143 1351.52 C 4603 1351.52 5064 668.485 5524 668.485" transform="matrix(1,0,0,1,-76.75447082519531,0)" style="fill:none;stroke:rgb(17, 94, 132);transform:matrix(1, 0, 0, 1, -76.7545, 0);;animation:none"></path>
<path stroke-width="2" stroke-opacity="0" stroke="rgb(17, 94, 133)" fill="none" d="M 0 669.598 C 460 669.598 921 1350.4 1381 1350.4 C 1841 1350.4 2302 669.597 2762 669.597 C 3222 669.597 3683 1350.4 4143 1350.4 C 4603 1350.4 5064 669.597 5524 669.597" transform="matrix(1,0,0,1,-89.54669952392578,0)" style="fill:none;stroke:rgb(17, 94, 133);transform:matrix(1, 0, 0, 1, -89.5467, 0);;animation:none"></path>
<path stroke-width="2" stroke-opacity="0" stroke="rgb(18, 94, 133)" fill="none" d="M 0 670.898 C 460 670.898 921 1349.1 1381 1349.1 C 1841 1349.1 2302 670.898 2762 670.898 C 3222 670.898 3683 1349.1 4143 1349.1 C 4603 1349.1 5064 670.898 5524 670.898" transform="matrix(1,0,0,1,-102.33928680419922,0)" style="fill:none;stroke:rgb(18, 94, 133);transform:matrix(1, 0, 0, 1, -102.339, 0);;animation:none"></path>
<path stroke-width="2" stroke-opacity="0" stroke="rgb(18, 94, 134)" fill="none" d="M 0 672.392 C 460 672.392 921 1347.61 1381 1347.61 C 1841 1347.61 2302 672.392 2762 672.392 C 3222 672.392 3683 1347.61 4143 1347.61 C 4603 1347.61 5064 672.392 5524 672.392" transform="matrix(1,0,0,1,-115.13152313232422,0)" style="fill:none;stroke:rgb(18, 94, 134);transform:matrix(1, 0, 0, 1, -115.132, 0);;animation:none"></path>
<path stroke-width="2" stroke-opacity="0" stroke="rgb(19, 95, 135)" fill="none" d="M 0 674.084 C 460 674.084 921 1345.92 1381 1345.92 C 1841 1345.92 2302 674.084 2762 674.084 C 3222 674.084 3683 1345.92 4143 1345.92 C 4603 1345.92 5064 674.084 5524 674.084" transform="matrix(1,0,0,1,-127.92411804199219,0)" style="fill:none;stroke:rgb(19, 95, 135);transform:matrix(1, 0, 0, 1, -127.924, 0);;animation:none"></path>
<path stroke-width="2" stroke-opacity="0" stroke="rgb(20, 95, 135)" fill="none" d="M 0 675.979 C 460 675.979 921 1344.02 1381 1344.02 C 1841 1344.02 2302 675.979 2762 675.979 C 3222 675.979 3683 1344.02 4143 1344.02 C 4603 1344.02 5064 675.979 5524 675.979" transform="matrix(1,0,0,1,-140.71633911132812,0)" style="fill:none;stroke:rgb(20, 95, 135);transform:matrix(1, 0, 0, 1, -140.716, 0);;animation:none"></path>
<path stroke-width="2" stroke-opacity="0" stroke="rgb(20, 95, 136)" fill="none" d="M 0 678.082 C 460 678.082 921 1341.92 1381 1341.92 C 1841 1341.92 2302 678.082 2762 678.082 C 3222 678.082 3683 1341.92 4143 1341.92 C 4603 1341.92 5064 678.082 5524 678.082" transform="matrix(1,0,0,1,-153.50894165039062,0)" style="fill:none;stroke:rgb(20, 95, 136);transform:matrix(1, 0, 0, 1, -153.509, 0);;animation:none"></path>
<path stroke-width="2" stroke-opacity="0" stroke="rgb(21, 96, 137)" fill="none" d="M 0 680.398 C 460 680.398 921 1339.6 1381 1339.6 C 1841 1339.6 2302 680.398 2762 680.398 C 3222 680.398 3683 1339.6 4143 1339.6 C 4603 1339.6 5064 680.398 5524 680.398" transform="matrix(1,0,0,1,-166.30116271972656,0)" style="fill:none;stroke:rgb(21, 96, 137);transform:matrix(1, 0, 0, 1, -166.301, 0);;animation:none"></path>
<path stroke-width="2" stroke-opacity="0" stroke="rgb(22, 96, 138)" fill="none" d="M 0 682.934 C 460 682.934 921 1337.07 1381 1337.07 C 1841 1337.07 2302 682.934 2762 682.934 C 3222 682.934 3683 1337.07 4143 1337.07 C 4603 1337.07 5064 682.934 5524 682.934" transform="matrix(1,0,0,1,-179.09375,0)" style="fill:none;stroke:rgb(22, 96, 138);transform:matrix(1, 0, 0, 1, -179.094, 0);;animation:none"></path>
<path stroke-width="2" stroke-opacity="0" stroke="rgb(23, 97, 140)" fill="none" d="M 0 685.695 C 460 685.695 921 1334.3 1381 1334.3 C 1841 1334.3 2302 685.695 2762 685.695 C 3222 685.695 3683 1334.3 4143 1334.3 C 4603 1334.3 5064 685.695 5524 685.695" transform="matrix(1,0,0,1,-191.885986328125,0)" style="fill:none;stroke:rgb(23, 97, 140);transform:matrix(1, 0, 0, 1, -191.886, 0);;animation:none"></path>
<path stroke-width="2" stroke-opacity="0" stroke="rgb(24, 97, 141)" fill="none" d="M 0 688.686 C 460 688.686 921 1331.31 1381 1331.31 C 1841 1331.31 2302 688.686 2762 688.686 C 3222 688.686 3683 1331.31 4143 1331.31 C 4603 1331.31 5064 688.686 5524 688.686" transform="matrix(1,0,0,1,-204.67857360839844,0)" style="fill:none;stroke:rgb(24, 97, 141);transform:matrix(1, 0, 0, 1, -204.679, 0);;animation:none"></path>
<path stroke-width="2" stroke-opacity="0" stroke="rgb(26, 98, 142)" fill="none" d="M 0 691.914 C 460 691.914 921 1328.09 1381 1328.09 C 1841 1328.09 2302 691.914 2762 691.914 C 3222 691.914 3683 1328.09 4143 1328.09 C 4603 1328.09 5064 691.914 5524 691.914" transform="matrix(1,0,0,1,-217.47117614746094,0)" style="fill:none;stroke:rgb(26, 98, 142);transform:matrix(1, 0, 0, 1, -217.471, 0);;animation:none"></path>
<path stroke-width="2" stroke-opacity="0" stroke="rgb(27, 99, 144)" fill="none" d="M 0 695.384 C 460 695.384 921 1324.62 1381 1324.62 C 1841 1324.62 2302 695.384 2762 695.384 C 3222 695.384 3683 1324.62 4143 1324.62 C 4603 1324.62 5064 695.384 5524 695.384" transform="matrix(1,0,0,1,-230.26341247558594,0)" style="fill:none;stroke:rgb(27, 99, 144);transform:matrix(1, 0, 0, 1, -230.263, 0);;animation:none"></path>
<path stroke-width="2" stroke-opacity="0" stroke="rgb(28, 99, 145)" fill="none" d="M 0 699.103 C 460 699.103 921 1320.9 1381 1320.9 C 1841 1320.9 2302 699.103 2762 699.103 C 3222 699.103 3683 1320.9 4143 1320.9 C 4603 1320.9 5064 699.103 5524 699.103" transform="matrix(1,0,0,1,-243.05599975585938,0)" style="fill:none;stroke:rgb(28, 99, 145);transform:matrix(1, 0, 0, 1, -243.056, 0);;animation:none"></path>
<path stroke-width="2" stroke-opacity="0" stroke="rgb(30, 100, 147)" fill="none" d="M 0 703.076 C 460 703.076 921 1316.92 1381 1316.92 C 1841 1316.92 2302 703.076 2762 703.076 C 3222 703.076 3683 1316.92 4143 1316.92 C 4603 1316.92 5064 703.076 5524 703.076" transform="matrix(1,0,0,1,-255.84823608398438,0)" style="fill:none;stroke:rgb(30, 100, 147);transform:matrix(1, 0, 0, 1, -255.848, 0);;animation:none"></path>
<path stroke-width="2" stroke-opacity="0" stroke="rgb(31, 101, 149)" fill="none" d="M 0 707.31 C 460 707.31 921 1312.69 1381 1312.69 C 1841 1312.69 2302 707.31 2762 707.31 C 3222 707.31 3683 1312.69 4143 1312.69 C 4603 1312.69 5064 707.31 5524 707.31" transform="matrix(1,0,0,1,-268.64080810546875,0)" style="fill:none;stroke:rgb(31, 101, 149);transform:matrix(1, 0, 0, 1, -268.641, 0);;animation:none"></path>
<path stroke-width="2" stroke-opacity="0" stroke="rgb(33, 102, 151)" fill="none" d="M 0 711.811 C 460 711.811 921 1308.19 1381 1308.19 C 1841 1308.19 2302 711.811 2762 711.811 C 3222 711.811 3683 1308.19 4143 1308.19 C 4603 1308.19 5064 711.811 5524 711.811" transform="matrix(1,0,0,1,-281.43304443359375,0)" style="fill:none;stroke:rgb(33, 102, 151);transform:matrix(1, 0, 0, 1, -281.433, 0);;animation:none"></path>
<path stroke-width="2" stroke-opacity="0" stroke="rgb(35, 103, 153)" fill="none" d="M 0 716.585 C 460 716.585 921 1303.42 1381 1303.42 C 1841 1303.42 2302 716.585 2762 716.585 C 3222 716.585 3683 1303.42 4143 1303.42 C 4603 1303.42 5064 716.585 5524 716.585" transform="matrix(1,0,0,1,-294.22564697265625,0)" style="fill:none;stroke:rgb(35, 103, 153);transform:matrix(1, 0, 0, 1, -294.226, 0);;animation:none"></path>
<path stroke-width="2" stroke-opacity="0" stroke="rgb(37, 104, 156)" fill="none" d="M 0 721.637 C 460 721.637 921 1298.36 1381 1298.36 C 1841 1298.36 2302 721.637 2762 721.637 C 3222 721.637 3683 1298.36 4143 1298.36 C 4603 1298.36 5064 721.637 5524 721.637" transform="matrix(1,0,0,1,-307.01788330078125,0)" style="fill:none;stroke:rgb(37, 104, 156);transform:matrix(1, 0, 0, 1, -307.018, 0);;animation:none"></path>
<path stroke-width="2" stroke-opacity="0" stroke="rgb(39, 105, 158)" fill="none" d="M 0 726.975 C 460 726.975 921 1293.03 1381 1293.03 C 1841 1293.03 2302 726.975 2762 726.975 C 3222 726.975 3683 1293.03 4143 1293.03 C 4603 1293.03 5064 726.975 5524 726.975" transform="matrix(1,0,0,1,-319.8104553222656,0)" style="fill:none;stroke:rgb(39, 105, 158);transform:matrix(1, 0, 0, 1, -319.81, 0);;animation:none"></path>
<path stroke-width="2" stroke-opacity="0" stroke="rgb(41, 106, 161)" fill="none" d="M 0 732.604 C 460 732.604 921 1287.4 1381 1287.4 C 1841 1287.4 2302 732.604 2762 732.604 C 3222 732.604 3683 1287.4 4143 1287.4 C 4603 1287.4 5064 732.604 5524 732.604" transform="matrix(1,0,0,1,-332.6026916503906,0)" style="fill:none;stroke:rgb(41, 106, 161);transform:matrix(1, 0, 0, 1, -332.603, 0);;animation:none"></path>
<path stroke-width="2" stroke-opacity="0" stroke="rgb(43, 107, 163)" fill="none" d="M 0 738.529 C 460 738.529 921 1281.47 1381 1281.47 C 1841 1281.47 2302 738.529 2762 738.529 C 3222 738.529 3683 1281.47 4143 1281.47 C 4603 1281.47 5064 738.529 5524 738.529" transform="matrix(1,0,0,1,-345.3952941894531,0)" style="fill:none;stroke:rgb(43, 107, 163);transform:matrix(1, 0, 0, 1, -345.395, 0);;animation:none"></path>
<path stroke-width="2" stroke-opacity="0" stroke="rgb(46, 108, 166)" fill="none" d="M 0 744.756 C 460 744.756 921 1275.24 1381 1275.24 C 1841 1275.24 2302 744.756 2762 744.756 C 3222 744.756 3683 1275.24 4143 1275.24 C 4603 1275.24 5064 744.756 5524 744.756" transform="matrix(1,0,0,1,-358.1875,0)" style="fill:none;stroke:rgb(46, 108, 166);transform:matrix(1, 0, 0, 1, -358.188, 0);;animation:none"></path>
<path stroke-width="2" stroke-opacity="0" stroke="rgb(48, 109, 169)" fill="none" d="M 0 751.291 C 460 751.291 921 1268.71 1381 1268.71 C 1841 1268.71 2302 751.291 2762 751.291 C 3222 751.291 3683 1268.71 4143 1268.71 C 4603 1268.71 5064 751.291 5524 751.291" transform="matrix(1,0,0,1,-370.9801330566406,0)" style="fill:none;stroke:rgb(48, 109, 169);transform:matrix(1, 0, 0, 1, -370.98, 0);;animation:none"></path>
<path stroke-width="2" stroke-opacity="0" stroke="rgb(51, 111, 172)" fill="none" d="M 0 758.137 C 460 758.137 921 1261.86 1381 1261.86 C 1841 1261.86 2302 758.137 2762 758.137 C 3222 758.137 3683 1261.86 4143 1261.86 C 4603 1261.86 5064 758.137 5524 758.137" transform="matrix(1,0,0,1,-383.7723388671875,0)" style="fill:none;stroke:rgb(51, 111, 172);transform:matrix(1, 0, 0, 1, -383.772, 0);;animation:none"></path>
<path stroke-width="2" stroke-opacity="0" stroke="rgb(53, 112, 175)" fill="none" d="M 0 765.299 C 460 765.299 921 1254.7 1381 1254.7 C 1841 1254.7 2302 765.299 2762 765.299 C 3222 765.299 3683 1254.7 4143 1254.7 C 4603 1254.7 5064 765.299 5524 765.299" transform="matrix(1,0,0,1,-396.56494140625,0)" style="fill:none;stroke:rgb(53, 112, 175);transform:matrix(1, 0, 0, 1, -396.565, 0);;animation:none"></path>
<path stroke-width="2" stroke-opacity="0" stroke="rgb(56, 113, 178)" fill="none" d="M 0 772.781 C 460 772.781 921 1247.22 1381 1247.22 C 1841 1247.22 2302 772.781 2762 772.781 C 3222 772.781 3683 1247.22 4143 1247.22 C 4603 1247.22 5064 772.781 5524 772.781" transform="matrix(1,0,0,1,-409.3571472167969,0)" style="fill:none;stroke:rgb(56, 113, 178);transform:matrix(1, 0, 0, 1, -409.357, 0);;animation:none"></path>
<path stroke-width="2" stroke-opacity="0" stroke="rgb(59, 115, 181)" fill="none" d="M 0 780.586 C 460 780.586 921 1239.41 1381 1239.41 C 1841 1239.41 2302 780.586 2762 780.586 C 3222 780.586 3683 1239.41 4143 1239.41 C 4603 1239.41 5064 780.586 5524 780.586" transform="matrix(1,0,0,1,-422.1497802734375,0)" style="fill:none;stroke:rgb(59, 115, 181);transform:matrix(1, 0, 0, 1, -422.15, 0);;animation:none"></path>
<path stroke-width="2" stroke-opacity="0" stroke="rgb(61, 116, 185)" fill="none" d="M 0 788.716 C 460 788.716 921 1231.28 1381 1231.28 C 1841 1231.28 2302 788.716 2762 788.716 C 3222 788.716 3683 1231.28 4143 1231.28 C 4603 1231.28 5064 788.716 5524 788.716" transform="matrix(1,0,0,1,-434.9423522949219,0)" style="fill:none;stroke:rgb(61, 116, 185);transform:matrix(1, 0, 0, 1, -434.942, 0);;animation:none"></path>
<path stroke-width="2" stroke-opacity="0" stroke="rgb(64, 118, 188)" fill="none" d="M 0 797.171 C 460 797.171 921 1222.83 1381 1222.83 C 1841 1222.83 2302 797.171 2762 797.171 C 3222 797.171 3683 1222.83 4143 1222.83 C 4603 1222.83 5064 797.171 5524 797.171" transform="matrix(1,0,0,1,-447.73455810546875,0)" style="fill:none;stroke:rgb(64, 118, 188);transform:matrix(1, 0, 0, 1, -447.735, 0);;animation:none"></path>
<path stroke-width="2" stroke-opacity="0" stroke="rgb(67, 119, 191)" fill="none" d="M 0 805.953 C 460 805.953 921 1214.05 1381 1214.05 C 1841 1214.05 2302 805.953 2762 805.953 C 3222 805.953 3683 1214.05 4143 1214.05 C 4603 1214.05 5064 805.953 5524 805.953" transform="matrix(1,0,0,1,-460.52716064453125,0)" style="fill:none;stroke:rgb(67, 119, 191);transform:matrix(1, 0, 0, 1, -460.527, 0);;animation:none"></path>
<path stroke-width="2" stroke-opacity="0" stroke="rgb(70, 120, 195)" fill="none" d="M 0 815.06 C 460 815.06 921 1204.94 1381 1204.94 C 1841 1204.94 2302 815.06 2762 815.06 C 3222 815.06 3683 1204.94 4143 1204.94 C 4603 1204.94 5064 815.06 5524 815.06" transform="matrix(1,0,0,1,-473.31939697265625,0)" style="fill:none;stroke:rgb(70, 120, 195);transform:matrix(1, 0, 0, 1, -473.319, 0);;animation:none"></path>
<path stroke-width="2" stroke-opacity="0" stroke="rgb(73, 122, 198)" fill="none" d="M 0 824.49 C 460 824.49 921 1195.51 1381 1195.51 C 1841 1195.51 2302 824.49 2762 824.49 C 3222 824.49 3683 1195.51 4143 1195.51 C 4603 1195.51 5064 824.49 5524 824.49" transform="matrix(1,0,0,1,-486.11199951171875,0)" style="fill:none;stroke:rgb(73, 122, 198);transform:matrix(1, 0, 0, 1, -486.112, 0);;animation:none"></path>
<path stroke-width="2" stroke-opacity="0" stroke="rgb(75, 123, 201)" fill="none" d="M 0 834.239 C 460 834.239 921 1185.76 1381 1185.76 C 1841 1185.76 2302 834.239 2762 834.239 C 3222 834.239 3683 1185.76 4143 1185.76 C 4603 1185.76 5064 834.239 5524 834.239" transform="matrix(1,0,0,1,-498.9042053222656,0)" style="fill:none;stroke:rgb(75, 123, 201);transform:matrix(1, 0, 0, 1, -498.904, 0);;animation:none"></path>
<path stroke-width="2" stroke-opacity="0" stroke="rgb(78, 125, 204)" fill="none" d="M 0 844.302 C 460 844.302 921 1175.7 1381 1175.7 C 1841 1175.7 2302 844.302 2762 844.302 C 3222 844.302 3683 1175.7 4143 1175.7 C 4603 1175.7 5064 844.302 5524 844.302" transform="matrix(1,0,0,1,-511.6968078613281,0)" style="fill:none;stroke:rgb(78, 125, 204);transform:matrix(1, 0, 0, 1, -511.697, 0);;animation:none"></path>
<path stroke-width="2" stroke-opacity="0" stroke="rgb(81, 126, 207)" fill="none" d="M 0 854.67 C 460 854.67 921 1165.33 1381 1165.33 C 1841 1165.33 2302 854.67 2762 854.67 C 3222 854.67 3683 1165.33 4143 1165.33 C 4603 1165.33 5064 854.67 5524 854.67" transform="matrix(1,0,0,1,-524.4890747070312,0)" style="fill:none;stroke:rgb(81, 126, 207);transform:matrix(1, 0, 0, 1, -524.489, 0);;animation:none"></path>
<path stroke-width="2" stroke-opacity="0" stroke="rgb(83, 127, 210)" fill="none" d="M 0 865.336 C 460 865.336 921 1154.66 1381 1154.66 C 1841 1154.66 2302 865.336 2762 865.336 C 3222 865.336 3683 1154.66 4143 1154.66 C 4603 1154.66 5064 865.336 5524 865.336" transform="matrix(1,0,0,1,-537.2816162109375,0)" style="fill:none;stroke:rgb(83, 127, 210);transform:matrix(1, 0, 0, 1, -537.282, 0);;animation:none"></path>
<path stroke-width="2" stroke-opacity="0" stroke="rgb(86, 129, 213)" fill="none" d="M 0 876.287 C 460 876.287 921 1143.71 1381 1143.71 C 1841 1143.71 2302 876.287 2762 876.287 C 3222 876.287 3683 1143.71 4143 1143.71 C 4603 1143.71 5064 876.287 5524 876.287" transform="matrix(1,0,0,1,-550.0738525390625,0)" style="fill:none;stroke:rgb(86, 129, 213);transform:matrix(1, 0, 0, 1, -550.074, 0);;animation:none"></path>
<path stroke-width="2" stroke-opacity="0" stroke="rgb(88, 130, 216)" fill="none" d="M 0 887.511 C 460 887.511 921 1132.49 1381 1132.49 C 1841 1132.49 2302 887.511 2762 887.511 C 3222 887.511 3683 1132.49 4143 1132.49 C 4603 1132.49 5064 887.511 5524 887.511" transform="matrix(1,0,0,1,-562.866455078125,0)" style="fill:none;stroke:rgb(88, 130, 216);transform:matrix(1, 0, 0, 1, -562.866, 0);;animation:none"></path>
<path stroke-width="2" stroke-opacity="0" stroke="rgb(90, 131, 219)" fill="none" d="M 0 898.991 C 460 898.991 921 1121.01 1381 1121.01 C 1841 1121.01 2302 898.991 2762 898.991 C 3222 898.991 3683 1121.01 4143 1121.01 C 4603 1121.01 5064 898.991 5524 898.991" transform="matrix(1,0,0,1,-575.65869140625,0)" style="fill:none;stroke:rgb(90, 131, 219);transform:matrix(1, 0, 0, 1, -575.659, 0);;animation:none"></path>
<path stroke-width="2" stroke-opacity="0" stroke="rgb(93, 132, 221)" fill="none" d="M 0 910.712 C 460 910.712 921 1109.29 1381 1109.29 C 1841 1109.29 2302 910.712 2762 910.712 C 3222 910.712 3683 1109.29 4143 1109.29 C 4603 1109.29 5064 910.712 5524 910.712" transform="matrix(1,0,0,1,-588.4512939453125,0)" style="fill:none;stroke:rgb(93, 132, 221);transform:matrix(1, 0, 0, 1, -588.451, 0);;animation:none"></path>
<path stroke-width="2" stroke-opacity="0" stroke="rgb(95, 133, 224)" fill="none" d="M 0 922.651 C 460 922.651 921 1097.35 1381 1097.35 C 1841 1097.35 2302 922.651 2762 922.651 C 3222 922.651 3683 1097.35 4143 1097.35 C 4603 1097.35 5064 922.651 5524 922.651" transform="matrix(1,0,0,1,-601.2434692382812,0)" style="fill:none;stroke:rgb(95, 133, 224);transform:matrix(1, 0, 0, 1, -601.243, 0);;animation:none"></path>
<path stroke-width="2" stroke-opacity="0" stroke="rgb(97, 134, 226)" fill="none" d="M 0 934.788 C 460 934.788 921 1085.21 1381 1085.21 C 1841 1085.21 2302 934.788 2762 934.788 C 3222 934.788 3683 1085.21 4143 1085.21 C 4603 1085.21 5064 934.788 5524 934.788" transform="matrix(1,0,0,1,-614.0360717773438,0)" style="fill:none;stroke:rgb(97, 134, 226);transform:matrix(1, 0, 0, 1, -614.036, 0);;animation:none"></path>
<path stroke-width="2" stroke-opacity="0" stroke="rgb(98, 135, 228)" fill="none" d="M 0 947.097 C 460 947.097 921 1072.9 1381 1072.9 C 1841 1072.9 2302 947.097 2762 947.097 C 3222 947.097 3683 1072.9 4143 1072.9 C 4603 1072.9 5064 947.097 5524 947.097" transform="matrix(1,0,0,1,-626.828369140625,0)" style="fill:none;stroke:rgb(98, 135, 228);transform:matrix(1, 0, 0, 1, -626.828, 0);;animation:none"></path>
<path stroke-width="2" stroke-opacity="0" stroke="rgb(100, 136, 230)" fill="none" d="M 0 959.555 C 460 959.555 921 1060.45 1381 1060.45 C 1841 1060.45 2302 959.555 2762 959.555 C 3222 959.555 3683 1060.45 4143 1060.45 C 4603 1060.45 5064 959.555 5524 959.555" transform="matrix(1,0,0,1,-639.6209106445312,0)" style="fill:none;stroke:rgb(100, 136, 230);transform:matrix(1, 0, 0, 1, -639.621, 0);;animation:none"></path>
<path stroke-width="2" stroke-opacity="0" stroke="rgb(102, 137, 232)" fill="none" d="M 0 972.133 C 460 972.133 921 1047.87 1381 1047.87 C 1841 1047.87 2302 972.132 2762 972.132 C 3222 972.132 3683 1047.87 4143 1047.87 C 4603 1047.87 5064 972.132 5524 972.132" transform="matrix(1,0,0,1,-652.4135131835938,0)" style="fill:none;stroke:rgb(102, 137, 232);transform:matrix(1, 0, 0, 1, -652.414, 0);;animation:none"></path>
<path stroke-width="2" stroke-opacity="0" stroke="rgb(103, 138, 234)" fill="none" d="M 0 984.801 C 460 984.801 921 1035.2 1381 1035.2 C 1841 1035.2 2302 984.801 2762 984.801 C 3222 984.801 3683 1035.2 4143 1035.2 C 4603 1035.2 5064 984.801 5524 984.801" transform="matrix(1,0,0,1,-665.2057495117188,0)" style="fill:none;stroke:rgb(103, 138, 234);transform:matrix(1, 0, 0, 1, -665.206, 0);;animation:none"></path>
<path stroke-width="2" stroke-opacity="0" stroke="rgb(105, 138, 236)" fill="none" d="M 0 997.53 C 460 997.53 921 1022.47 1381 1022.47 C 1841 1022.47 2302 997.53 2762 997.53 C 3222 997.53 3683 1022.47 4143 1022.47 C 4603 1022.47 5064 997.53 5524 997.53" transform="matrix(1,0,0,1,-677.9983520507812,0)" style="fill:none;stroke:rgb(105, 138, 236);transform:matrix(1, 0, 0, 1, -677.998, 0);;animation:none"></path>
<path stroke-width="2" stroke-opacity="0.019230769230769232" stroke="rgb(106, 139, 237)" fill="none" d="M 0 1010.29 C 460 1010.29 921 1009.71 1381 1009.71 C 1841 1009.71 2302 1010.29 2762 1010.29 C 3222 1010.29 3683 1009.71 4143 1009.71 C 4603 1009.71 5064 1010.29 5524 1010.29" transform="matrix(1,0,0,1,-690.7905883789062,0)" style="fill:none;stroke:rgb(106, 139, 237);transform:matrix(1, 0, 0, 1, -690.791, 0);;animation:none"></path>
<path stroke-width="2" stroke-opacity="0.038461538461538464" stroke="rgb(107, 140, 239)" fill="none" d="M 0 1023.05 C 460 1023.05 921 996.951 1381 996.951 C 1841 996.951 2302 1023.05 2762 1023.05 C 3222 1023.05 3683 996.951 4143 996.951 C 4603 996.951 5064 1023.05 5524 1023.05" transform="matrix(1,0,0,1,-703.5831298828125,0)" style="fill:none;stroke:rgb(107, 140, 239);transform:matrix(1, 0, 0, 1, -703.583, 0);;animation:none"></path>
<path stroke-width="2" stroke-opacity="0.057692307692307696" stroke="rgb(109, 140, 240)" fill="none" d="M 0 1035.78 C 460 1035.78 921 984.224 1381 984.224 C 1841 984.224 2302 1035.78 2762 1035.78 C 3222 1035.78 3683 984.224 4143 984.224 C 4603 984.224 5064 1035.78 5524 1035.78" transform="matrix(1,0,0,1,-716.3754272460938,0)" style="fill:none;stroke:rgb(109, 140, 240);transform:matrix(1, 0, 0, 1, -716.375, 0);;animation:none"></path>
<path stroke-width="2" stroke-opacity="0.07692307692307693" stroke="rgb(110, 141, 241)" fill="none" d="M 0 1048.44 C 460 1048.44 921 971.559 1381 971.559 C 1841 971.559 2302 1048.44 2762 1048.44 C 3222 1048.44 3683 971.559 4143 971.559 C 4603 971.559 5064 1048.44 5524 1048.44" transform="matrix(1,0,0,1,-729.16796875,0)" style="fill:none;stroke:rgb(110, 141, 241);transform:matrix(1, 0, 0, 1, -729.168, 0);;animation:none"></path>
<path stroke-width="2" stroke-opacity="0.09615384615384616" stroke="rgb(111, 141, 243)" fill="none" d="M 0 1061.01 C 460 1061.01 921 958.986 1381 958.986 C 1841 958.986 2302 1061.01 2762 1061.01 C 3222 1061.01 3683 958.986 4143 958.986 C 4603 958.986 5064 1061.01 5524 1061.01" transform="matrix(1,0,0,1,-741.9602661132812,0)" style="fill:none;stroke:rgb(111, 141, 243);transform:matrix(1, 0, 0, 1, -741.96, 0);;animation:none"></path>
<path stroke-width="2" stroke-opacity="0.11538461538461539" stroke="rgb(111, 142, 244)" fill="none" d="M 0 1073.47 C 460 1073.47 921 946.535 1381 946.535 C 1841 946.535 2302 1073.47 2762 1073.47 C 3222 1073.47 3683 946.535 4143 946.535 C 4603 946.535 5064 1073.47 5524 1073.47" transform="matrix(1,0,0,1,-754.7528076171875,0)" style="fill:none;stroke:rgb(111, 142, 244);transform:matrix(1, 0, 0, 1, -754.753, 0);;animation:none"></path>
<path stroke-width="2" stroke-opacity="0.1346153846153846" stroke="rgb(112, 142, 244)" fill="none" d="M 0 1085.77 C 460 1085.77 921 934.232 1381 934.232 C 1841 934.232 2302 1085.77 2762 1085.77 C 3222 1085.77 3683 934.232 4143 934.232 C 4603 934.232 5064 1085.77 5524 1085.77" transform="matrix(1,0,0,1,-767.5449829101562,0)" style="fill:none;stroke:rgb(112, 142, 244);transform:matrix(1, 0, 0, 1, -767.545, 0);;animation:none"></path>
<path stroke-width="2" stroke-opacity="0.15384615384615385" stroke="rgb(113, 142, 245)" fill="none" d="M 0 1097.9 C 460 1097.9 921 922.104 1381 922.104 C 1841 922.104 2302 1097.9 2762 1097.9 C 3222 1097.9 3683 922.104 4143 922.104 C 4603 922.104 5064 1097.9 5524 1097.9" transform="matrix(1,0,0,1,-780.3375854492188,0)" style="fill:none;stroke:rgb(113, 142, 245);transform:matrix(1, 0, 0, 1, -780.338, 0);;animation:none"></path>
<path stroke-width="2" stroke-opacity="0.17307692307692307" stroke="rgb(113, 143, 246)" fill="none" d="M 0 1109.83 C 460 1109.83 921 910.174 1381 910.174 C 1841 910.174 2302 1109.83 2762 1109.83 C 3222 1109.83 3683 910.174 4143 910.174 C 4603 910.174 5064 1109.83 5524 1109.83" transform="matrix(1,0,0,1,-793.1298828125,0)" style="fill:none;stroke:rgb(113, 143, 246);transform:matrix(1, 0, 0, 1, -793.13, 0);;animation:none"></path>
<path stroke-width="2" stroke-opacity="0.19230769230769232" stroke="rgb(114, 143, 247)" fill="none" d="M 0 1121.54 C 460 1121.54 921 898.464 1381 898.464 C 1841 898.464 2302 1121.54 2762 1121.54 C 3222 1121.54 3683 898.464 4143 898.464 C 4603 898.464 5064 1121.54 5524 1121.54" transform="matrix(1,0,0,1,-805.9224243164062,0)" style="fill:none;stroke:rgb(114, 143, 247);transform:matrix(1, 0, 0, 1, -805.922, 0);;animation:none"></path>
<path stroke-width="2" stroke-opacity="0.21153846153846154" stroke="rgb(114, 143, 247)" fill="none" d="M 0 1133 C 460 1133 921 886.995 1381 886.995 C 1841 886.995 2302 1133 2762 1133 C 3222 1133 3683 886.995 4143 886.995 C 4603 886.995 5064 1133 5524 1133" transform="matrix(1,0,0,1,-818.7147216796875,0)" style="fill:none;stroke:rgb(114, 143, 247);transform:matrix(1, 0, 0, 1, -818.715, 0);;animation:none"></path>
<path stroke-width="2" stroke-opacity="0.23076923076923078" stroke="rgb(115, 143, 248)" fill="none" d="M 0 1144.22 C 460 1144.22 921 875.783 1381 875.783 C 1841 875.783 2302 1144.22 2762 1144.22 C 3222 1144.22 3683 875.783 4143 875.783 C 4603 875.783 5064 1144.22 5524 1144.22" transform="matrix(1,0,0,1,-831.5072631835938,0)" style="fill:none;stroke:rgb(115, 143, 248);transform:matrix(1, 0, 0, 1, -831.507, 0);;animation:none"></path>
<path stroke-width="2" stroke-opacity="0.25" stroke="rgb(115, 144, 248)" fill="none" d="M 0 1155.16 C 460 1155.16 921 864.845 1381 864.845 C 1841 864.845 2302 1155.16 2762 1155.16 C 3222 1155.16 3683 864.845 4143 864.845 C 4603 864.845 5064 1155.16 5524 1155.16" transform="matrix(1,0,0,1,-844.2998657226562,0)" style="fill:none;stroke:rgb(115, 144, 248);transform:matrix(1, 0, 0, 1, -844.3, 0);;animation:none"></path>
<path stroke-width="2" stroke-opacity="0.2692307692307692" stroke="rgb(115, 144, 248)" fill="none" d="M 0 1165.81 C 460 1165.81 921 854.193 1381 854.193 C 1841 854.193 2302 1165.81 2762 1165.81 C 3222 1165.81 3683 854.193 4143 854.193 C 4603 854.193 5064 1165.81 5524 1165.81" transform="matrix(1,0,0,1,-857.0921020507812,0)" style="fill:none;stroke:rgb(115, 144, 248);transform:matrix(1, 0, 0, 1, -857.092, 0);;animation:none"></path>
<path stroke-width="2" stroke-opacity="0.28846153846153844" stroke="rgb(116, 144, 249)" fill="none" d="M 0 1176.16 C 460 1176.16 921 843.838 1381 843.838 C 1841 843.838 2302 1176.16 2762 1176.16 C 3222 1176.16 3683 843.838 4143 843.838 C 4603 843.838 5064 1176.16 5524 1176.16" transform="matrix(1,0,0,1,-869.8847045898438,0)" style="fill:none;stroke:rgb(116, 144, 249);transform:matrix(1, 0, 0, 1, -869.885, 0);;animation:none"></path>
<path stroke-width="2" stroke-opacity="0.3076923076923077" stroke="rgb(116, 144, 249)" fill="none" d="M 0 1186.21 C 460 1186.21 921 833.789 1381 833.789 C 1841 833.789 2302 1186.21 2762 1186.21 C 3222 1186.21 3683 833.789 4143 833.789 C 4603 833.789 5064 1186.21 5524 1186.21" transform="matrix(1,0,0,1,-882.6768798828125,0)" style="fill:none;stroke:rgb(116, 144, 249);transform:matrix(1, 0, 0, 1, -882.677, 0);;animation:none"></path>
<path stroke-width="2" stroke-opacity="0.3269230769230769" stroke="rgb(116, 144, 249)" fill="none" d="M 0 1195.95 C 460 1195.95 921 824.055 1381 824.055 C 1841 824.055 2302 1195.95 2762 1195.95 C 3222 1195.95 3683 824.055 4143 824.055 C 4603 824.055 5064 1195.95 5524 1195.95" transform="matrix(1,0,0,1,-895.469482421875,0)" style="fill:none;stroke:rgb(116, 144, 249);transform:matrix(1, 0, 0, 1, -895.469, 0);;animation:none"></path>
<path stroke-width="2" stroke-opacity="0.34615384615384615" stroke="rgb(116, 144, 249)" fill="none" d="M 0 1205.36 C 460 1205.36 921 814.639 1381 814.639 C 1841 814.639 2302 1205.36 2762 1205.36 C 3222 1205.36 3683 814.639 4143 814.639 C 4603 814.639 5064 1205.36 5524 1205.36" transform="matrix(1,0,0,1,-908.26171875,0)" style="fill:none;stroke:rgb(116, 144, 249);transform:matrix(1, 0, 0, 1, -908.262, 0);;animation:none"></path>
<path stroke-width="2" stroke-opacity="0.36538461538461536" stroke="rgb(116, 144, 249)" fill="none" d="M 0 1214.45 C 460 1214.45 921 805.547 1381 805.547 C 1841 805.547 2302 1214.45 2762 1214.45 C 3222 1214.45 3683 805.547 4143 805.547 C 4603 805.547 5064 1214.45 5524 1214.45" transform="matrix(1,0,0,1,-921.0543212890625,0)" style="fill:none;stroke:rgb(116, 144, 249);transform:matrix(1, 0, 0, 1, -921.054, 0);;animation:none"></path>
<path stroke-width="2" stroke-opacity="0.38461538461538464" stroke="rgb(116, 144, 249)" fill="none" d="M 0 1223.22 C 460 1223.22 921 796.78 1381 796.78 C 1841 796.78 2302 1223.22 2762 1223.22 C 3222 1223.22 3683 796.78 4143 796.78 C 4603 796.78 5064 1223.22 5524 1223.22" transform="matrix(1,0,0,1,-933.8465576171875,0)" style="fill:none;stroke:rgb(116, 144, 249);transform:matrix(1, 0, 0, 1, -933.847, 0);;animation:none"></path>
<path stroke-width="2" stroke-opacity="0.40384615384615385" stroke="rgb(116, 144, 249)" fill="none" d="M 0 1231.66 C 460 1231.66 921 788.339 1381 788.339 C 1841 788.339 2302 1231.66 2762 1231.66 C 3222 1231.66 3683 788.339 4143 788.339 C 4603 788.339 5064 1231.66 5524 1231.66" transform="matrix(1,0,0,1,-946.63916015625,0)" style="fill:none;stroke:rgb(116, 144, 249);transform:matrix(1, 0, 0, 1, -946.639, 0);;animation:none"></path>
<path stroke-width="2" stroke-opacity="0.4230769230769231" stroke="rgb(116, 144, 249)" fill="none" d="M 0 1239.78 C 460 1239.78 921 780.224 1381 780.224 C 1841 780.224 2302 1239.78 2762 1239.78 C 3222 1239.78 3683 780.224 4143 780.224 C 4603 780.224 5064 1239.78 5524 1239.78" transform="matrix(1,0,0,1,-959.431396484375,0)" style="fill:none;stroke:rgb(116, 144, 249);transform:matrix(1, 0, 0, 1, -959.431, 0);;animation:none"></path>
<path stroke-width="2" stroke-opacity="0.4423076923076923" stroke="rgb(115, 143, 248)" fill="none" d="M 0 1247.57 C 460 1247.57 921 772.434 1381 772.434 C 1841 772.434 2302 1247.57 2762 1247.57 C 3222 1247.57 3683 772.434 4143 772.434 C 4603 772.434 5064 1247.57 5524 1247.57" transform="matrix(1,0,0,1,-972.2239990234375,0)" style="fill:none;stroke:rgb(115, 143, 248);transform:matrix(1, 0, 0, 1, -972.224, 0);;animation:none"></path>
<path stroke-width="2" stroke-opacity="0.46153846153846156" stroke="rgb(115, 143, 248)" fill="none" d="M 0 1255.03 C 460 1255.03 921 764.967 1381 764.967 C 1841 764.967 2302 1255.03 2762 1255.03 C 3222 1255.03 3683 764.967 4143 764.967 C 4603 764.967 5064 1255.03 5524 1255.03" transform="matrix(1,0,0,1,-985.0161743164062,0)" style="fill:none;stroke:rgb(115, 143, 248);transform:matrix(1, 0, 0, 1, -985.016, 0);;animation:none"></path>
<path stroke-width="2" stroke-opacity="0.4807692307692308" stroke="rgb(115, 143, 247)" fill="none" d="M 0 1262.18 C 460 1262.18 921 757.819 1381 757.819 C 1841 757.819 2302 1262.18 2762 1262.18 C 3222 1262.18 3683 757.819 4143 757.819 C 4603 757.819 5064 1262.18 5524 1262.18" transform="matrix(1,0,0,1,-997.808837890625,0)" style="fill:none;stroke:rgb(115, 143, 247);transform:matrix(1, 0, 0, 1, -997.809, 0);;animation:none"></path>
<path stroke-width="2" stroke-opacity="0.5" stroke="rgb(114, 142, 247)" fill="none" d="M 0 1269.01 C 460 1269.01 921 750.987 1381 750.987 C 1841 750.987 2302 1269.01 2762 1269.01 C 3222 1269.01 3683 750.987 4143 750.987 C 4603 750.987 5064 1269.01 5524 1269.01" transform="matrix(1,0,0,1,-1010.6010131835938,0)" style="fill:none;stroke:rgb(114, 142, 247);transform:matrix(1, 0, 0, 1, -1010.6, 0);;animation:none"></path>
<path stroke-width="2" stroke-opacity="0.5192307692307693" stroke="rgb(114, 141, 246)" fill="none" d="M 0 1275.53 C 460 1275.53 921 744.467 1381 744.467 C 1841 744.467 2302 1275.53 2762 1275.53 C 3222 1275.53 3683 744.467 4143 744.467 C 4603 744.467 5064 1275.53 5524 1275.53" transform="matrix(1,0,0,1,-1023.3936157226562,0)" style="fill:none;stroke:rgb(114, 141, 246);transform:matrix(1, 0, 0, 1, -1023.39, 0);;animation:none"></path>
<path stroke-width="2" stroke-opacity="0.5384615384615384" stroke="rgb(113, 141, 246)" fill="none" d="M 0 1281.75 C 460 1281.75 921 738.253 1381 738.253 C 1841 738.253 2302 1281.75 2762 1281.75 C 3222 1281.75 3683 738.253 4143 738.253 C 4603 738.253 5064 1281.75 5524 1281.75" transform="matrix(1,0,0,1,-1036.1859130859375,0)" style="fill:none;stroke:rgb(113, 141, 246);transform:matrix(1, 0, 0, 1, -1036.19, 0);;animation:none"></path>
<path stroke-width="2" stroke-opacity="0.5576923076923077" stroke="rgb(113, 140, 245)" fill="none" d="M 0 1287.66 C 460 1287.66 921 732.341 1381 732.341 C 1841 732.341 2302 1287.66 2762 1287.66 C 3222 1287.66 3683 732.341 4143 732.341 C 4603 732.341 5064 1287.66 5524 1287.66" transform="matrix(1,0,0,1,-1048.9783935546875,0)" style="fill:none;stroke:rgb(113, 140, 245);transform:matrix(1, 0, 0, 1, -1048.98, 0);;animation:none"></path>
<path stroke-width="2" stroke-opacity="0.5769230769230769" stroke="rgb(112, 139, 244)" fill="none" d="M 0 1293.27 C 460 1293.27 921 726.726 1381 726.726 C 1841 726.726 2302 1293.27 2762 1293.27 C 3222 1293.27 3683 726.726 4143 726.726 C 4603 726.726 5064 1293.27 5524 1293.27" transform="matrix(1,0,0,1,-1061.77099609375,0)" style="fill:none;stroke:rgb(112, 139, 244);transform:matrix(1, 0, 0, 1, -1061.77, 0);;animation:none"></path>
<path stroke-width="2" stroke-opacity="0.5961538461538461" stroke="rgb(111, 138, 243)" fill="none" d="M 0 1298.6 C 460 1298.6 921 721.402 1381 721.402 C 1841 721.402 2302 1298.6 2762 1298.6 C 3222 1298.6 3683 721.402 4143 721.402 C 4603 721.402 5064 1298.6 5524 1298.6" transform="matrix(1,0,0,1,-1074.563232421875,0)" style="fill:none;stroke:rgb(111, 138, 243);transform:matrix(1, 0, 0, 1, -1074.56, 0);;animation:none"></path>
<path stroke-width="2" stroke-opacity="0.6153846153846154" stroke="rgb(111, 137, 242)" fill="none" d="M 0 1303.64 C 460 1303.64 921 716.362 1381 716.362 C 1841 716.362 2302 1303.64 2762 1303.64 C 3222 1303.64 3683 716.362 4143 716.362 C 4603 716.362 5064 1303.64 5524 1303.64" transform="matrix(1,0,0,1,-1087.3558349609375,0)" style="fill:none;stroke:rgb(111, 137, 242);transform:matrix(1, 0, 0, 1, -1087.36, 0);;animation:none"></path>
<path stroke-width="2" stroke-opacity="0.6346153846153846" stroke="rgb(110, 136, 241)" fill="none" d="M 0 1308.4 C 460 1308.4 921 711.6 1381 711.6 C 1841 711.6 2302 1308.4 2762 1308.4 C 3222 1308.4 3683 711.6 4143 711.6 C 4603 711.6 5064 1308.4 5524 1308.4" transform="matrix(1,0,0,1,-1100.1480712890625,0)" style="fill:none;stroke:rgb(110, 136, 241);transform:matrix(1, 0, 0, 1, -1100.15, 0);;animation:none"></path>
<path stroke-width="2" stroke-opacity="0.6538461538461539" stroke="rgb(109, 135, 240)" fill="none" d="M 0 1312.89 C 460 1312.89 921 707.112 1381 707.112 C 1841 707.112 2302 1312.89 2762 1312.89 C 3222 1312.89 3683 707.112 4143 707.112 C 4603 707.112 5064 1312.89 5524 1312.89" transform="matrix(1,0,0,1,-1112.940673828125,0)" style="fill:none;stroke:rgb(109, 135, 240);transform:matrix(1, 0, 0, 1, -1112.94, 0);;animation:none"></path>
<path stroke-width="2" stroke-opacity="0.6730769230769231" stroke="rgb(108, 134, 238)" fill="none" d="M 0 1317.11 C 460 1317.11 921 702.89 1381 702.89 C 1841 702.89 2302 1317.11 2762 1317.11 C 3222 1317.11 3683 702.89 4143 702.89 C 4603 702.89 5064 1317.11 5524 1317.11" transform="matrix(1,0,0,1,-1125.73291015625,0)" style="fill:none;stroke:rgb(108, 134, 238);transform:matrix(1, 0, 0, 1, -1125.73, 0);;animation:none"></path>
<path stroke-width="2" stroke-opacity="0.6923076923076923" stroke="rgb(107, 132, 237)" fill="none" d="M 0 1321.07 C 460 1321.07 921 698.929 1381 698.929 C 1841 698.929 2302 1321.07 2762 1321.07 C 3222 1321.07 3683 698.929 4143 698.929 C 4603 698.929 5064 1321.07 5524 1321.07" transform="matrix(1,0,0,1,-1138.5255126953125,0)" style="fill:none;stroke:rgb(107, 132, 237);transform:matrix(1, 0, 0, 1, -1138.53, 0);;animation:none"></path>
<path stroke-width="2" stroke-opacity="0.7115384615384616" stroke="rgb(105, 131, 235)" fill="none" d="M 0 1324.78 C 460 1324.78 921 695.221 1381 695.221 C 1841 695.221 2302 1324.78 2762 1324.78 C 3222 1324.78 3683 695.221 4143 695.221 C 4603 695.221 5064 1324.78 5524 1324.78" transform="matrix(1,0,0,1,-1151.3177490234375,0)" style="fill:none;stroke:rgb(105, 131, 235);transform:matrix(1, 0, 0, 1, -1151.32, 0);;animation:none"></path>
<path stroke-width="2" stroke-opacity="0.7307692307692307" stroke="rgb(104, 129, 233)" fill="none" d="M 0 1328.24 C 460 1328.24 921 691.762 1381 691.762 C 1841 691.762 2302 1328.24 2762 1328.24 C 3222 1328.24 3683 691.762 4143 691.762 C 4603 691.762 5064 1328.24 5524 1328.24" transform="matrix(1,0,0,1,-1164.1103515625,0)" style="fill:none;stroke:rgb(104, 129, 233);transform:matrix(1, 0, 0, 1, -1164.11, 0);;animation:none"></path>
<path stroke-width="2" stroke-opacity="0.75" stroke="rgb(103, 127, 232)" fill="none" d="M 0 1331.45 C 460 1331.45 921 688.545 1381 688.545 C 1841 688.545 2302 1331.45 2762 1331.45 C 3222 1331.45 3683 688.545 4143 688.545 C 4603 688.545 5064 1331.45 5524 1331.45" transform="matrix(1,0,0,1,-1176.902587890625,0)" style="fill:none;stroke:rgb(103, 127, 232);transform:matrix(1, 0, 0, 1, -1176.9, 0);;animation:none"></path>
<path stroke-width="2" stroke-opacity="0.7692307692307693" stroke="rgb(101, 125, 230)" fill="none" d="M 0 1334.44 C 460 1334.44 921 685.565 1381 685.565 C 1841 685.565 2302 1334.44 2762 1334.44 C 3222 1334.44 3683 685.565 4143 685.565 C 4603 685.565 5064 1334.44 5524 1334.44" transform="matrix(1,0,0,1,-1189.6951904296875,0)" style="fill:none;stroke:rgb(101, 125, 230);transform:matrix(1, 0, 0, 1, -1189.7, 0);;animation:none"></path>
<path stroke-width="2" stroke-opacity="0.7884615384615384" stroke="rgb(100, 123, 227)" fill="none" d="M 0 1337.19 C 460 1337.19 921 682.814 1381 682.814 C 1841 682.814 2302 1337.19 2762 1337.19 C 3222 1337.19 3683 682.814 4143 682.814 C 4603 682.814 5064 1337.19 5524 1337.19" transform="matrix(1,0,0,1,-1202.4874267578125,0)" style="fill:none;stroke:rgb(100, 123, 227);transform:matrix(1, 0, 0, 1, -1202.49, 0);;animation:none"></path>
<g></g></g><!-- [ldio] generated by https://loading.io --></svg>