<svg version="1.1" xmlns="http://www.w3.org/2000/svg" xmlns:xlink="http://www.w3.org/1999/xlink" width="1560" height="804"><defs/><g><path fill="none" stroke="#02063B" paint-order="fill stroke markers" d=" M 20 426.5043736064694 L 21 427.72110328272333 L 22 428.9365925558178 L 23 430.15078280864293 L 24 431.3636154867345 L 25 432.5750321010971 L 26 433.7849742310256 L 27 434.9933835269218 L 28 436.2002017131085 L 29 437.40537059064025 L 30 438.60883204010946 L 31 439.8105280244495 L 32 441.0104005917336 L 33 442.2083918779694 L 34 443.40444410988954 L 35 444.5984996077377 L 36 445.79050078805057 L 37 446.9803901664342 L 38 448.16811036033664 L 39 449.3536040918152 L 40 450.5368141902986 L 41 451.71768359534394 L 42 452.8961553593885 L 43 454.07217265049616 L 44 455.245678755098 L 45 456.4166170807274 L 46 457.5849311587491 L 47 458.75056464708257 L 48 459.9134613329189 L 49 461.073565135432 L 50 462.23082010848265 L 51 463.38517044331695 L 52 464.5365604712574 L 53 465.6849346663877 L 54 466.8302376482304 L 55 467.97241418441774 L 56 469.11140919335503 L 57 470.24716774687715 L 58 471.37963507289754 L 59 472.5087565580493 L 60 473.6344777503191 L 61 474.75674436167316 L 62 475.8755022706754 L 63 476.99069752509706 L 64 478.10227634451894 L 65 479.2101851229249 L 66 480.31437043128676 L 67 481.4147790201414 L 68 482.51135782215806 L 69 483.60405395469826 L 70 484.69281472236537 L 71 485.77758761954647 L 72 486.85832033294395 L 73 487.9349607440986 L 74 489.007456931903 L 75 490.0757571751053 L 76 491.1398099548036 L 77 492.1995639569304 L 78 493.25496807472723 L 79 494.3059714112094 L 80 495.35252328162017 L 81 496.39457321587554 L 82 497.43207096099775 L 83 498.46496648353883 L 84 499.4932099719937 L 85 500.5167518392019 L 86 501.5355427247394 L 87 502.54953349729885 L 88 503.55867525705867 L 89 504.56291933804175 L 90 505.5622173104618 L 91 506.55652098305944 L 92 507.5457824054259 L 93 508.5299538703154 L 94 509.50898791594614 L 95 510.4828373282887 L 96 511.4514551433434 L 97 512.4147946494049 L 98 513.372809389315 L 99 514.3254531627026 L 100 515.2726800282126 L 101 516.2144443057205 L 102 517.1507005785357 L 103 518.0814036955923 L 104 519.0065087736252 L 105 519.9259711993361 L 106 520.8397466315439 L 107 521.7477910033232 L 108 522.6500605241301 L 109 523.5465116819133 L 110 524.4371012452128 L 111 525.3217862652447 L 112 526.2005240779722 L 113 527.0732723061633 L 114 527.9399888614346 L 115 528.8006319462806 L 116 529.6551600560899 L 117 530.5035319811461 L 118 531.3457068086158 L 119 532.181643924521 L 120 533.0113030156986 L 121 533.8346440717435 L 122 534.6516273869386 L 123 535.4622135621698 L 124 536.266363506826 L 125 537.0640384406834 L 126 537.8551998957768 L 127 538.6398097182542 L 128 539.417830070217 L 129 540.189223431544 L 130 540.953952601702 L 131 541.711980701539 L 132 542.4632711750628 L 133 543.2077877912038 L 134 543.9454946455631 L 135 544.6763561621426 L 136 545.400337095062 L 137 546.1174025302574 L 138 546.8275178871661 L 139 547.5306489203931 L 140 548.226761721364 L 141 548.9158227199589 L 142 549.5977986861318 L 143 550.2726567315137 L 144 550.9403643109977 L 145 551.6008892243092 L 146 552.2541996175582 L 147 552.9002639847763 L 148 553.5390511694349 L 149 554.1705303659488 L 150 554.7946711211612 L 151 555.4114433358126 L 152 556.0208172659919 L 153 556.6227635245716 L 154 557.2172530826241 L 155 557.8042572708222 L 156 558.3837477808215 L 157 558.9556966666257 L 158 559.5200763459341 L 159 560.0768596014718 L 160 560.6260195823022 L 161 561.1675298051225 L 162 561.7013641555399 L 163 562.2274968893314 L 164 562.7459026336855 L 165 563.2565563884259 L 166 563.7594335272164 L 167 564.2545097987494 L 168 564.7417613279147 L 169 565.2211646169513 L 170 565.6926965465808 L 171 566.1563343771215 L 172 566.612055749586 L 173 567.0598386867586 L 174 567.4996615942557 L 175 567.9315032615673 L 176 568.3553428630792 L 177 568.771159959078 L 178 569.1789344967365 L 179 569.578646811081 L 180 569.9702776259387 L 181 570.3538080548692 L 182 570.729219602073 L 183 571.0964941632856 L 184 571.4556140266488 L 185 571.806561873566 L 186 572.1493207795371 L 187 572.4838742149743 L 188 572.810206046 L 189 573.1283005352238 L 190 573.4381423425029 L 191 573.7397165256803 L 192 574.0330085413063 L 193 574.31800424534 L 194 574.5946898938307 L 195 574.8630521435813 L 196 575.1230780527914 L 197 575.3747550816817 L 198 575.6180710930986 L 199 575.8530143530995 L 200 576.0795735315187 L 201 576.2977377025138 L 202 576.5074963450926 L 203 576.7088393436205 L 204 576.9017569883083 L 205 577.0862399756804 L 206 577.2622794090236 L 207 577.4298667988157 L 208 577.5889940631362 L 209 577.7396535280539 L 210 577.8818379279991 L 211 578.0155404061127 L 212 578.1407545145773 L 213 578.2574742149284 L 214 578.3656938783447 L 215 578.4654082859207 L 216 578.5566126289176 L 217 578.6393025089956 L 218 578.7134739384255 L 219 578.7791233402817 L 220 578.8362475486143 L 221 578.8848438086018 L 222 578.924909776684 L 223 578.9564435206748 L 224 578.9794435198561 L 225 578.9939086650501 L 226 578.9998382586734 L 227 578.9972320147708 L 228 578.9860900590288 L 229 578.9664129287694 L 230 578.9382015729244 L 231 578.9014573519898 L 232 578.8561820379598 L 233 578.8023778142417 L 234 578.7400472755502 L 235 578.6691934277828 L 236 578.5898196878745 L 237 578.5019298836329 L 238 578.4055282535539 L 239 578.3006194466174 L 240 578.1872085220624 L 241 578.0653009491439 L 242 577.9349026068685 L 243 577.7960197837114 L 244 577.6486591773125 L 245 577.4928278941541 L 246 577.3285334492177 L 247 577.1557837656217 L 248 576.9745871742394 L 249 576.7849524132976 L 250 576.5868886279538 L 251 576.3804053698574 L 252 576.1655125966868 L 253 575.942220671671 L 254 575.7105403630883 L 255 575.4704828437486 L 256 575.2220596904532 L 257 574.9652828834371 L 258 574.7001648057914 L 259 574.4267182428657 L 260 574.1449563816523 L 261 573.8548928101487 L 262 573.5565415167044 L 263 573.2499168893447 L 264 572.9350337150775 L 265 572.6119071791799 L 266 572.2805528644661 L 267 571.9409867505364 L 268 571.5932252130052 L 269 571.2372850227129 L 270 570.8731833449158 L 271 570.5009377384592 L 272 570.1205661549304 L 273 569.7320869377926 L 274 569.3355188215005 L 275 568.9308809305971 L 276 568.5181927787913 L 277 568.0974742680165 L 278 567.6687456874713 L 279 567.2320277126406 L 280 566.7873414042989 L 281 566.3347082074946 L 282 565.8741499505155 L 283 565.4056888438364 L 284 564.929347479048 L 285 564.4451488277675 L 286 563.9531162405301 L 287 563.4532734456642 L 288 562.9456445481457 L 289 562.4302540284366 L 290 561.9071267413038 L 291 561.3762879146209 L 292 560.8377631481513 L 293 560.2915784123136 L 294 559.7377600469296 L 295 559.1763347599533 L 296 558.6073296261837 L 297 558.0307720859589 L 298 557.4466899438323 L 299 556.8551113672324 L 300 556.256064885104 L 301 555.6495793865323 L 302 555.0356841193503 L 303 554.4144086887277 L 304 553.7857830557435 L 305 553.1498375359411 L 306 552.506602797866 L 307 551.8561098615875 L 308 551.1983900972022 L 309 550.533475223321 L 310 549.8613973055404 L 311 549.1821887548949 L 312 548.495882326295 L 313 547.802511116947 L 314 547.1021085647569 L 315 546.3947084467186 L 316 545.6803448772837 L 317 544.9590523067175 L 318 544.2308655194369 L 319 543.4958196323336 L 320 542.7539500930797 L 321 542.005292678419 L 322 541.2498834924413 L 323 540.4877589648414 L 324 539.7189558491621 L 325 538.9435112210218 L 326 538.161462476327 L 327 537.3728473294681 L 328 536.5777038115011 L 329 535.7760702683134 L 330 534.9679853587749 L 331 534.1534880528728 L 332 533.3326176298336 L 333 532.5054136762276 L 334 531.6719160840603 L 335 530.8321650488489 L 336 529.9862010676834 L 337 529.1340649372742 L 338 528.2757977519838 L 339 527.4114409018459 L 340 526.5410360705688 L 341 525.6646252335255 L 342 524.7822506557291 L 343 523.8939548897952 L 344 522.9997807738888 L 345 522.0997714296595 L 346 521.1939702601614 L 347 520.2824209477599 L 348 519.3651674520249 L 349 518.4422540076121 L 350 517.5137251221279 L 351 516.5796255739846 L 352 515.6400004102401 L 353 514.6948949444261 L 354 513.7443547543619 L 355 512.7884256799574 L 356 511.82715382100207 L 357 510.8605855349417 L 358 509.88876743464283 L 359 508.91174638614496 L 360 507.9295695064003 L 361 506.9422841610017 L 362 505.9499379618984 L 363 504.95257876509964 L 364 503.95025466836745 L 365 502.9430140088962 L 366 501.93090536098265 L 367 500.9139775336824 L 368 499.89227956845673 L 369 498.86586073680735 L 370 497.8347705379003 L 371 496.7990586961788 L 372 495.75877515896536 L 373 494.71397009405314 L 374 493.66469388728615 L 375 492.61099714013017 L 376 491.55293066723164 L 377 490.4905454939679 L 378 489.42389285398576 L 379 488.35302418673143 L 380 487.2779911349693 L 381 486.1988455422917 L 382 485.11563945061886 L 383 484.0284250976888 L 384 482.9372549145387 L 385 481.8421815229758 L 386 480.7432577330403 L 387 479.6405365404581 L 388 478.53407112408524 L 389 477.42391484334365 L 390 476.3101212356474 L 391 475.1927440138211 L 392 474.0718370635096 L 393 472.94745444057935 L 394 471.8196503685113 L 395 470.68847923578653 L 396 469.5539955932627 L 397 468.41625415154374 L 398 467.27530977834147 L 399 466.13121749582916 L 400 464.98403247798865 L 401 463.833810047949 L 402 462.68060567531904 L 403 461.5244749735121 L 404 460.36547369706415 L 405 459.20365773894457 L 406 458.03908312786155 L 407 456.8718060255595 L 408 455.70188272411053 L 409 454.52936964320037 L 410 453.35432332740686 L 411 452.17680044347367 L 412 450.99685777757696 L 413 449.81455223258735 L 414 448.6299408253255 L 415 447.4430806838125 L 416 446.25402904451516 L 417 445.06284324958517 L 418 443.8695807440944 L 419 442.67429907326397 L 420 441.47705587969 L 421 440.2779089005628 L 422 439.07691596488326 L 423 437.8741349906735 L 424 436.66962398218413 L 425 435.4634410270971 L 426 434.25564429372355 L 427 433.0462920282 L 428 431.83544255167806 L 429 430.62315425751297 L 430 429.4094856084468 L 431 428.19449513378964 L 432 426.97824142659647 L 433 425.7607831408422 L 434 424.5421789885924 L 435 423.32248773717214 L 436 422.1017682063323 L 437 420.88007926541223 L 438 419.65747983050153 L 439 418.4340288615982 L 440 417.20978535976593 L 441 415.98480836428797 L 442 414.7591569498207 L 443 413.53289022354437 L 444 412.3060673223126 L 445 411.0787474098007 L 446 409.85098967365235 L 447 408.62285332262553 L 448 407.3943975837366 L 449 406.1656816994048 L 450 404.93676492459457 L 451 403.7077065239586 L 452 402.47856576897954 L 453 401.2494019351112 L 454 400.02027429892087 L 455 398.79124213522965 L 456 397.56236471425507 L 457 396.33370129875163 L 458 395.1053111411539 L 459 393.87725348071797 L 460 392.6495875406658 L 461 391.4223725253283 L 462 390.1956676172903 L 463 388.9695319745372 L 464 387.74402472760084 L 465 386.51920497670915 L 466 385.2951317889352 L 467 384.07186419534906 L 468 382.84946118817084 L 469 381.62798171792593 L 470 380.40748469060225 L 471 379.18802896480884 L 472 377.96967334893833 L 473 376.75247659833 L 474 375.53649741243714 L 475 374.3217944319954 L 476 373.1084262361957 L 477 371.8964513398585 L 478 370.6859281906124 L 479 369.4769151660753 L 480 368.2694705710391 L 481 367.0636526346581 L 482 365.8595195076407 L 483 364.6571292594453 L 484 363.4565398754796 L 485 362.2578092543047 L 486 361.06099520484213 L 487 359.8661554435871 L 488 358.6733475918244 L 489 357.4826291728494 L 490 356.2940576091948 L 491 355.1076902198606 L 492 353.9235842175505 L 493 352.74179670591235 L 494 351.56238467678475 L 495 350.385405007448 L 496 349.21091445788204 L 497 348.03896966802847 L 498 346.86962715505916 L 499 345.7029433106514 L 500 344.5389743982672 L 501 343.3777765504414 L 502 342.21940576607324 L 503 341.06391790772705 L 504 339.9113686989373 L 505 338.761813721522 L 506 337.6153084129021 L 507 336.4719080634275 L 508 335.33166781371165 L 509 334.1946426519713 L 510 333.0608874113756 L 511 331.930456767401 L 512 330.8034052351954 L 513 329.67978716694813 L 514 328.5596567492697 L 515 327.4430680005782 L 516 326.33007476849406 L 517 325.2207307272439 L 518 324.1150893750713 L 519 323.01320403165766 L 520 321.91512783555 L 521 320.8209137415991 L 522 319.7306145184052 L 523 318.64428274577364 L 524 317.5619708121789 L 525 316.4837309122382 L 526 315.40961504419465 L 527 314.33967500740914 L 528 313.27396239986297 L 529 312.21252861566893 L 530 311.1554248425933 L 531 310.1027020595867 L 532 309.0544110343264 L 533 308.0106023207675 L 534 306.9713262567049 L 535 305.9366329613464 L 536 304.9065723328947 L 537 303.88119404614207 L 538 302.86054755007405 L 539 301.84468206548524 L 540 300.8336465826052 L 541 299.8274898587361 L 542 298.82626041590174 L 543 297.8300065385068 L 544 296.83877627100895 L 545 295.8526174156017 L 546 294.8715775299091 L 547 293.89570392469216 L 548 292.9250436615678 L 549 291.95964355073846 L 550 290.99955014873547 L 551 290.0448097561734 L 552 289.0954684155172 L 553 288.1515719088622 L 554 287.2131657557257 L 555 286.2802952108523 L 556 285.35300526203105 L 557 284.43134062792626 L 558 283.51534575592075 L 559 282.60506481997237 L 560 281.7005417184839 L 561 280.8018200721857 L 562 279.90894322203246 L 563 279.0219542271126 L 564 278.1408958625725 L 565 277.2658106175528 L 566 276.39674069314003 L 567 275.533728000331 L 568 274.676814158012 L 569 273.8260404909515 L 570 272.98144802780723 L 571 272.1430774991478 L 572 271.31096933548804 L 573 270.48516366534 L 574 269.6657003132766 L 575 268.85261879801243 L 576 268.0459583304967 L 577 267.24575781202316 L 578 266.4520558323537 L 579 265.6648906678576 L 580 264.88430027966507 L 581 264.1103223118373 L 582 263.34299408955064 L 583 262.5823526172969 L 584 261.8284345770983 L 585 261.08127632673876 L 586 260.34091389801085 L 587 259.6073829949778 L 588 258.88071899225156 L 589 258.16095693328714 L 590 257.44813152869233 L 591 256.7422771545543 L 592 256.0434278507813 L 593 255.35161731946116 L 594 254.66687892323625 L 595 253.98924568369432 L 596 253.31875027977622 L 597 252.65542504619984 L 598 251.99930197190062 L 599 251.3504126984892 L 600 250.70878851872533 L 601 250.07446037500884 L 602 249.44745885788714 L 603 248.8278142045805 L 604 248.21555629752345 L 605 247.6107146629239 L 606 247.01331846933917 L 607 246.42339652626913 L 608 245.8409772827674 L 609 245.2660888260688 L 610 244.69875888023526 L 611 244.13901480481846 L 612 243.58688359354073 L 613 243.04239187299316 L 614 242.50556590135153 L 615 241.97643156710998 L 616 241.45501438783245 L 617 240.94133950892234 L 618 240.4354317024097 L 619 239.9373153657566 L 620 239.44701452068054 L 621 238.96455281199604 L 622 238.48995350647448 L 623 238.02323949172185 L 624 237.56443327507515 L 625 237.11355698251674 L 626 236.6706323576077 L 627 236.2356807604389 L 628 235.8087231666011 L 629 235.38978016617324 L 630 234.97887196272964 L 631 234.5760183723656 L 632 234.18123882274182 L 633 233.7945523521474 L 634 233.41597760858173 L 635 233.04553284885532 L 636 232.68323593770924 L 637 232.32910434695376 L 638 231.9831551546253 L 639 231.64540504416354 L 640 231.31587030360626 L 641 230.9945668248042 L 642 230.68151010265458 L 643 230.37671523435367 L 644 230.08019691866906 L 645 229.79196945523054 L 646 229.5120467438407 L 647 229.24044228380436 L 648 228.97716917327784 L 649 228.72224010863707 L 650 228.47566738386556 L 651 228.23746288996125 L 652 228.00763811436315 L 653 227.78620414039753 L 654 227.57317164674316 L 655 227.36855090691657 L 656 227.17235178877635 L 657 226.98458375404758 L 658 226.80525585786526 L 659 226.6343767483378 L 660 226.47195466612985 L 661 226.317997444065 L 662 226.17251250674795 L 663 226.03550687020652 L 664 225.90698714155326 L 665 225.78695951866686 L 666 225.67542978989317 L 667 225.57240333376623 L 668 225.47788511874865 L 669 225.39187970299227 L 670 225.3143912341181 L 671 225.24542344901644 L 672 225.1849796736667 L 673 225.13306282297683 L 674 225.08967540064293 L 675 225.05481949902847 L 676 225.02849679906325 L 677 225.01070857016254 L 678 225.00145567016568 L 679 225.0007385452949 L 680 225.00855723013353 L 681 225.02491134762468 L 682 225.04980010908912 L 683 225.0832223142635 L 684 225.1251763513581 L 685 225.17566019713468 L 686 225.234671417004 L 687 225.30220716514316 L 688 225.378264184633 L 689 225.462838807615 L 690 225.5559269554682 L 691 225.65752413900606 L 692 225.76762545869272 L 693 225.88622560487937 L 694 226.0133188580604 L 695 226.14889908914898 L 696 226.29295975977297 L 697 226.44549392258995 L 698 226.60649422162243 L 699 226.77595289261248 L 700 226.95386176339625 L 701 227.14021225429798 L 702 227.3349953785439 L 703 227.53820174269546 L 704 227.74982154710239 L 705 227.9698445863753 L 706 228.19826024987793 L 707 228.43505752223865 L 708 228.68022498388174 L 709 228.93375081157828 L 710 229.1956227790161 L 711 229.4658282573895 L 712 229.74435421600828 L 713 230.03118722292604 L 714 230.32631344558806 L 715 230.62971865149848 L 716 230.94138820890632 L 717 231.26130708751143 L 718 231.58945985918905 L 719 231.9258306987342 L 720 232.2704033846245 L 721 232.62316129980255 L 722 232.98408743247742 L 723 233.35316437694485 L 724 233.7303743344269 L 725 234.11569911393002 L 726 234.50912013312245 L 727 234.91061841923033 L 728 235.32017460995283 L 729 235.7377689543955 L 730 236.16338131402318 L 731 236.59699116363095 L 732 237.03857759233392 L 733 237.48811930457603 L 734 237.94559462115646 L 735 238.4109814802756 L 736 238.8842574385986 L 737 239.3653996723382 L 738 239.8543849783549 L 739 240.35118977527603 L 740 240.85579010463331 L 741 241.3681616320178 L 742 241.88827964825393 L 743 242.4161190705905 L 744 242.95165444391085 L 745 243.49485994195996 L 746 244.04570936859048 L 747 244.60417615902546 L 748 245.17023338113984 L 749 245.743853736759 L 750 246.32500956297545 L 751 246.91367283348282 L 752 247.5098151599272 L 753 248.11340779327648 L 754 248.7244216252065 L 755 249.34282718950521 L 756 249.9685946634932 L 757 250.60169386946217 L 758 251.24209427613016 L 759 251.889765000114 L 760 252.5446748074188 L 761 253.20679211494377 L 762 253.8760849920058 L 763 254.55252116187884 L 764 255.2360680033512 L 765 255.9266925522978 L 766 256.6243615032705 L 767 257.32904121110397 L 768 258.04069769253834 L 769 258.75929662785825 L 770 259.4848033625474 L 771 260.2171829089601 L 772 260.95639994800877 L 773 261.7024188308668 L 774 262.4552035806879 L 775 263.21471789434105 L 776 263.98092514416123 L 777 264.7537883797157 L 778 265.5332703295864 L 779 266.3193334031667 L 780 267.1119396924746 L 781 267.9110509739807 L 782 268.71662871045186 L 783 269.52863405280914 L 784 270.34702784200164 L 785 271.1717706108949 L 786 272.0028225861741 L 787 272.8401436902625 L 788 273.6836935432535 L 789 274.5334314648587 L 790 275.3893164763692 L 791 276.25130730263203 L 792 277.11936237404063 L 793 277.9934398285395 L 794 278.873497513643 L 795 279.7594929884681 L 796 280.6513835257815 L 797 281.5491261140595 L 798 282.4526774595628 L 799 283.36199398842365 L 800 284.27703184874844 L 801 285.1977469127311 L 802 286.12409477878197 L 803 287.0560307736688 L 804 287.9935099546711 L 805 288.93648711174797 L 806 289.88491676971756 L 807 290.83875319045075 L 808 291.7979503750765 L 809 292.7624620662006 L 810 293.732241750136 L 811 294.7072426591459 L 812 295.6874177736996 L 813 296.67271982473954 L 814 297.6631012959614 L 815 298.65851442610483 L 816 299.6589112112573 L 817 300.66424340716895 L 818 301.6744625315793 L 819 302.68951986655503 L 820 303.7093664608396 L 821 304.73395313221386 L 822 305.7632304698677 L 823 306.7971488367838 L 824 307.83565837212984 L 825 308.8787089936643 L 826 309.9262504001511 L 827 310.9782320737858 L 828 312.0346032826313 L 829 313.09531308306464 L 830 314.16031032223407 L 831 315.22954364052515 L 832 316.3029614740386 L 833 317.38051205707615 L 834 318.462143424637 L 835 319.54780341492415 L 836 320.63743967186025 L 837 321.7309996476115 L 838 322.82843060512243 L 839 323.9296796206592 L 840 325.03469358636136 L 841 326.1434192128038 L 842 327.25580303156573 L 843 328.3717913978098 L 844 329.49133049286866 L 845 330.6143663268412 L 846 331.74084474119525 L 847 332.87071141137994 L 848 334.00391184944533 L 849 335.14039140666995 L 850 336.280095276197 L 851 337.4229684956764 L 852 338.5689559499158 L 853 339.7180023735385 L 854 340.8700523536491 L 855 342.0250503325048 L 856 343.1829406101955 L 857 344.3436673473296 L 858 345.5071745677267 L 859 346.6734061611178 L 860 347.8423058858502 L 861 349.0138173716005 L 862 350.1878841220926 L 863 351.364449517823 L 864 352.5434568187901 L 865 353.7248491672315 L 866 354.9085695903656 L 867 356.0945610031387 L 868 357.2827662109792 L 869 358.47312791255433 L 870 359.6655887025343 L 871 360.8600910743604 L 872 362.05657742301895 L 873 363.25499004781824 L 874 364.4552711551717 L 875 365.6573628613852 L 876 366.861207195448 L 877 368.06674610182915 L 878 369.27392144327627 L 879 370.4826750036199 L 880 371.69294849058065 L 881 372.9046835385809 L 882 374.1178217115587 L 883 375.3323045057863 L 884 376.5480733526915 L 885 377.76506962168196 L 886 378.98323462297304 L 887 380.2025096104176 L 888 381.4228357843393 L 889 382.6441542943682 L 890 383.86640624227914 L 891 385.0895326848314 L 892 386.31347463661183 L 893 387.5381730728793 L 894 388.7635689324109 L 895 389.9896031203509 L 896 391.2162165110597 L 897 392.44334995096557 L 898 393.67094426141733 L 899 394.89894024153875 L 900 396.1272786710824 L 901 397.3559003132866 L 902 398.58474591773154 L 903 399.81375622319655 L 904 401.04287196051894 L 905 402.27203385545096 L 906 403.50118263151904 L 907 404.7302590128822 L 908 405.95920372719104 L 909 407.18795750844555 L 910 408.4164610998534 L 911 409.6446552566879 L 912 410.8724807491446 L 913 412.09987836519844 L 914 413.3267889134583 L 915 414.55315322602206 L 916 415.77891216132986 L 917 417.00400660701644 L 918 418.22837748276146 L 919 419.45196574313877 L 920 420.67471238046403 L 921 421.89655842764 L 922 423.1174449610012 L 923 424.3373131031541 L 924 425.55610402581743 L 925 426.7737589526589 L 926 427.9902191621302 L 927 429.2054259902977 L 928 430.4193208336727 L 929 431.631845152037 L 930 432.8429404712658 L 931 434.05254838614877 L 932 435.260610563205 L 933 436.4670687434973 L 934 437.6718647454412 L 935 438.8749404676116 L 936 440.0762378915433 L 937 441.2756990845303 L 938 442.4732662024186 L 939 443.6688814923964 L 940 444.8624872957793 L 941 446.05402605079024 L 942 447.24344029533586 L 943 448.43067266977755 L 944 449.615665919698 L 945 450.79836289866154 L 946 451.9787065709705 L 947 453.1566400144157 L 948 454.33210642302146 L 949 455.50504910978555 L 950 456.675411509412 L 951 457.84313718103976 L 952 459.00816981096403 L 953 460.1704532153528 L 954 461.32993134295515 L 955 462.4865482778053 L 956 463.64024824191875 L 957 464.7909755979821 L 958 465.93867485203674 L 959 467.08329065615425 L 960 468.22476781110595 L 961 469.3630512690248 L 962 470.49808613606075 L 963 471.62981767502674 L 964 472.7581913080394 L 965 473.8831526191507 L 966 475.00464735697193 L 967 476.12262143729106 L 968 477.2370209456795 L 969 478.3477921400929 L 970 479.45488145346275 L 971 480.5582354962801 L 972 481.6578010591693 L 973 482.7535251154549 L 974 483.8453548237185 L 975 484.93323753034673 L 976 486.01712077207156 L 977 487.096952278499 L 978 488.1726799746306 L 979 489.2442519833747 L 980 490.3116166280482 L 981 491.37472243486854 L 982 492.4335181354361 L 983 493.4879526692065 L 984 494.53797518595326 L 985 495.58353504822014 L 986 496.62458183376265 L 987 497.66106533797995 L 988 498.69293557633586 L 989 499.72014278677 L 990 500.74263743209644 L 991 501.7603702023936 L 992 502.7732920173816 L 993 503.7813540287897 L 994 504.78450762271166 L 995 505.78270442195026 L 996 506.77589628835017 L 997 507.76403532511944 L 998 508.7470738791398 L 999 509.724964543264 L 1000 510.6976601586024 L 1001 511.6651138167973 L 1002 512.6272788622848 L 1003 513.5841088945454 L 1004 514.5355577703406 L 1005 515.4815796059394 L 1006 516.4221287793298 L 1007 517.3571599324201 L 1008 518.2866279732257 L 1009 519.2104880780433 L 1010 520.1286956936135 L 1011 521.0412065392684 L 1012 521.9479766090678 L 1013 522.8489621739211 L 1014 523.7441197836956 L 1015 524.633406269313 L 1016 525.5167787448305 L 1017 526.3941946095088 L 1018 527.2656115498672 L 1019 528.1309875417237 L 1020 528.9902808522216 L 1021 529.8434500418425 L 1022 530.6904539664041 L 1023 531.531251779045 L 1024 532.3658029321939 L 1025 533.1940671795257 L 1026 534.0160045779023 L 1027 534.8315754892978 L 1028 535.6407405827117 L 1029 536.4434608360641 L 1030 537.2396975380789 L 1031 538.0294122901496 L 1032 538.8125670081915 L 1033 539.5891239244785 L 1034 540.3590455894641 L 1035 541.1222948735876 L 1036 541.8788349690648 L 1037 542.6286293916625 L 1038 543.3716419824584 L 1039 544.1078369095853 L 1040 544.8371786699583 L 1041 545.5596320909872 L 1042 546.2751623322725 L 1043 546.9837348872866 L 1044 547.6853155850365 L 1045 548.3798705917123 L 1046 549.0673664123193 L 1047 549.7477698922925 L 1048 550.4210482190958 L 1049 551.0871689238049 L 1050 551.7460998826721 L 1051 552.3978093186762 L 1052 553.042265803055 L 1053 553.6794382568203 L 1054 554.3092959522576 L 1055 554.931808514407 L 1056 555.5469459225286 L 1057 556.1546785115506 L 1058 556.754976973499 L 1059 557.3478123589115 L 1060 557.9331560782334 L 1061 558.5109799031968 L 1062 559.0812559681813 L 1063 559.6439567715584 L 1064 560.1990551770168 L 1065 560.7465244148725 L 1066 561.2863380833585 L 1067 561.8184701498988 L 1068 562.3428949523632 L 1069 562.8595872003054 L 1070 563.3685219761826 L 1071 563.8696747365566 L 1072 564.3630213132781 L 1073 564.8485379146516 L 1074 565.3262011265833 L 1075 565.7959879137102 L 1076 566.2578756205102 L 1077 566.7118419723959 L 1078 567.1578650767874 L 1079 567.5959234241698 L 1080 568.0259958891288 L 1081 568.4480617313702 L 1082 568.8621005967207 L 1083 569.2680925181079 L 1084 569.6660179165253 L 1085 570.0558576019746 L 1086 570.4375927743922 L 1087 570.8112050245556 L 1088 571.1766763349713 L 1089 571.5339890807431 L 1090 571.883126030423 L 1091 572.2240703468415 L 1092 572.5568055879197 L 1093 572.8813157074625 L 1094 573.197585055932 L 1095 573.5055983812025 L 1096 573.8053408292963 L 1097 574.0967979450991 L 1098 574.3799556730581 L 1099 574.6548003578596 L 1100 574.9213187450869 L 1101 575.1794979818601 L 1102 575.429325617456 L 1103 575.6707896039081 L 1104 575.9038782965881 L 1105 576.1285804547667 L 1106 576.3448852421568 L 1107 576.5527822274352 L 1108 576.7522613847457 L 1109 576.9433130941832 L 1110 577.125928142257 L 1111 577.3000977223353 L 1112 577.4658134350705 L 1113 577.6230672888029 L 1114 577.7718516999475 L 1115 577.9121594933591 L 1116 578.0439839026782 L 1117 578.1673185706574 L 1118 578.2821575494683 L 1119 578.3884953009879 L 1120 578.4863266970658 L 1121 578.575647019772 L 1122 578.6564519616234 L 1123 578.7287376257925 L 1124 578.7925005262949 L 1125 578.8477375881574 L 1126 578.8944461475662 L 1127 578.9326239519958 L 1128 578.9622691603172 L 1129 578.9833803428867 L 1130 578.9959564816152 L 1131 578.9999969700169 L 1132 578.9955016132388 L 1133 578.9824706280701 L 1134 578.9609046429315 L 1135 578.930804697845 L 1136 578.892172244384 L 1137 578.8450091456032 L 1138 578.7893176759479 L 1139 578.7251005211463 L 1140 578.6523607780775 L 1141 578.5711019546243 L 1142 578.4813279695027 L 1143 578.3830431520735 L 1144 578.2762522421331 L 1145 578.1609603896856 L 1146 578.0371731546937 L 1147 577.9048965068112 L 1148 577.7641368250944 L 1149 577.6149008976953 L 1150 577.4571959215335 L 1151 577.2910295019498 L 1152 577.1164096523386 L 1153 576.9333447937623 L 1154 576.7418437545448 L 1155 576.5419157698457 L 1156 576.3335704812149 L 1157 576.116817936128 L 1158 575.8916685875013 L 1159 575.658133293188 L 1160 575.4162233154545 L 1161 575.1659503204372 L 1162 574.9073263775801 L 1163 574.6403639590527 L 1164 574.365075939148 L 1165 574.0814755936624 L 1166 573.7895765992554 L 1167 573.4893930327893 L 1168 573.180939370651 L 1169 572.864230488054 L 1170 572.5392816583203 L 1171 572.2061085521448 L 1172 571.8647272368385 L 1173 571.5151541755547 L 1174 571.1574062264945 L 1175 570.7915006420938 L 1176 570.4174550681912 L 1177 570.0352875431777 L 1178 569.645016497126 L 1179 569.246660750902 L 1180 568.8402395152575 L 1181 568.4257723899032 L 1182 568.0032793625638 L 1183 567.572780808014 L 1184 567.1342974870963 L 1185 566.6878505457188 L 1186 566.2334615138367 L 1187 565.7711523044132 L 1188 565.3009452123632 L 1189 564.8228629134776 L 1190 564.33692846333 L 1191 563.8431652961652 L 1192 563.3415972237688 L 1193 562.8322484343184 L 1194 562.315143491218 L 1195 561.7903073319129 L 1196 561.257765266687 L 1197 560.7175429774427 L 1198 560.1696665164619 L 1199 559.6141623051499 L 1200 559.0510571327609 L 1201 558.4803781551067 L 1202 557.9021528932466 L 1203 557.3164092321599 L 1204 556.7231754194022 L 1205 556.1224800637422 L 1206 555.5143521337823 L 1207 554.8988209565618 L 1208 554.2759162161425 L 1209 553.645667952177 L 1210 553.0081065584601 L 1211 552.3632627814636 L 1212 551.7111677188522 L 1213 551.0518528179854 L 1214 550.3853498743999 L 1215 549.7116910302768 L 1216 549.0309087728914 L 1217 548.3430359330458 L 1218 547.6481056834871 L 1219 546.9461515373062 L 1220 546.2372073463226 L 1221 545.521307299451 L 1222 544.7984859210535 L 1223 544.0687780692741 L 1224 543.3322189343578 L 1225 542.5888440369533 L 1226 541.8386892264007 L 1227 541.0817906790016 L 1228 540.3181848962754 L 1229 539.547908703199 L 1230 538.7709992464299 L 1231 537.9874939925159 L 1232 537.1974307260878 L 1233 536.4008475480375 L 1234 535.5977828736802 L 1235 534.7882754309021 L 1236 533.9723642582925 L 1237 533.1500887032614 L 1238 532.321488420142 L 1239 531.486603368278 L 1240 530.6454738100967 L 1241 529.7981403091679 L 1242 528.944643728247 L 1243 528.0850252273044 L 1244 527.2193262615413 L 1245 526.3475885793895 L 1246 525.469854220499 L 1247 524.5861655137102 L 1248 523.6965650750119 L 1249 522.8010958054879 L 1250 521.8998008892463 L 1251 520.9927237913382 L 1252 520.0799082556605 L 1253 519.1613983028475 L 1254 518.237238228147 L 1255 517.3074725992849 L 1256 516.3721462543153 L 1257 515.4313042994586 L 1258 514.484992106926 L 1259 513.5332553127317 L 1260 512.5761398144921 L 1261 511.61369176921175 L 1262 510.64595759105833 L 1263 509.6729839491236 L 1264 508.6948177651733 L 1265 507.7115062113842 L 1266 506.7230967080682 L 1267 505.7296369213877 L 1268 504.7311747610547 L 1269 503.7277583780217 L 1270 502.7194361621589 L 1271 501.70625673992106 L 1272 500.6882689720021 L 1273 499.66552195097904 L 1274 498.6380649989446 L 1275 497.6059476651279 L 1276 496.56921972350614 L 1277 495.52793117040324 L 1278 494.4821322220794 L 1279 493.43187331230877 L 1280 492.37720508994806 L 1281 491.3181784164934 L 1282 490.25484436362774 L 1283 489.18725421075806 L 1284 488.1154594425416 L 1285 487.0395117464044 L 1286 485.95946301004767 L 1287 484.87536531894574 L 1288 483.7872709538343 L 1289 482.69523238818897 L 1290 481.59930228569505 L 1291 480.4995334977076 L 1292 479.3959790607029 L 1293 478.28869219371995 L 1294 477.1777262957953 L 1295 476.063134943387 L 1296 474.9449718877909 L 1297 473.8232910525489 L 1298 472.69814653084796 L 1299 471.5695925829119 L 1300 470.4376836333845 L 1301 469.3024742687051 L 1302 468.16401923447506 L 1303 467.02237343281945 L 1304 465.87759191973817 L 1305 464.72972990245114 L 1306 463.57884273673596 L 1307 462.42498592425835 L 1308 461.26821510989555 L 1309 460.10858607905305 L 1310 458.94615475497426 L 1311 457.7809771960426 L 1312 456.6131095930801 L 1313 455.4426082666359 L 1314 454.2695296642709 L 1315 453.09393035783546 L 1316 451.91586704074115 L 1317 450.7353965252267 L 1318 449.5525757396182 L 1319 448.36746172558423 L 1320 447.18011163538364 L 1321 445.9905827291111 L 1322 444.7989323719348 L 1323 443.60521803133 L 1324 442.40949727430797 L 1325 441.21182776463934 L 1326 440.0122672600739 L 1327 438.8108736095546 L 1328 437.6077047504287 L 1329 436.4028187056518 L 1330 435.19627358099217 L 1331 433.98812756222696 L 1332 432.77843891233675 L 1333 431.5672659686955 L 1334 430.3546671402575 L 1335 429.1407009047406 L 1336 427.9254258058058 L 1337 426.70890045023464 L 1338 425.49118350510156 L 1339 424.27233369494627 L 1340 423.0524097989409 L 1341 421.8314706480555 L 1342 420.60957512222063 L 1343 419.3867821474885 L 1344 418.16315069319063 L 1345 416.9387397690945 L 1346 415.71360842255785 L 1347 414.4878157356799 L 1348 413.261420822454 L 1349 412.03448282591575 L 1350 410.8070609152909 L 1351 409.57921428314205 L 1352 408.35100214251406 L 1353 407.1224837240784 L 1354 405.89371827327693 L 1355 404.66476504746487 L 1356 403.4356833130521 L 1357 402.20653234264665 L 1358 400.9773714121953 L 1359 399.748259798125 L 1360 398.5192567744846 L 1361 397.29042161008584 L 1362 396.0618135656458 L 1363 394.8334918909285 L 1364 393.60551582188805 L 1365 392.37794457781075 L 1366 391.1508373584611 L 1367 389.9242533412258 L 1368 388.69825167825974 L 1369 387.47289149363405 L 1370 386.24823188048435 L 1371 385.02433189816105 L 1372 383.80125056938135 L 1373 382.5790468773831 L 1374 381.3577797630792 L 1375 380.13750812221656 L 1376 378.91829080253535 L 1377 377.7001866009308 L 1378 376.48325426061797 L 1379 375.26755246829856 L 1380 374.05313985133125 L 1381 372.84007497490387 L 1382 371.62841633920976 L 1383 370.4182223766251 L 1384 369.2095514488931 L 1385 368.0024618443079 L 1386 366.79701177490443 L 1387 365.5932593736507 L 1388 364.39126269164444 L 1389 363.19107969531365 L 1390 361.99276826362126 L 1391 360.7963861852739 L 1392 359.6019911559341 L 1393 358.4096407754396 L 1394 357.2193925450244 L 1395 356.03130386454615 L 1396 354.84543202971787 L 1397 353.66183422934495 L 1398 352.4805675425673 L 1399 351.30168893610653 L 1400 350.12525526151904 L 1401 348.95132325245334 L 1402 347.7799495219156 L 1403 346.61119055953867 L 1404 345.4451027288576 L 1405 344.28174226459186 L 1406 343.1211652699336 L 1407 341.96342771384155 L 1408 340.8085854283423 L 1409 339.6566941058381 L 1410 338.5078092964195 L 1411 337.3619864051888 L 1412 336.2192806895864 L 1413 335.0797472567268 L 1414 333.9434410607405 L 1415 332.8104169001244 L 1416 331.68072941509865 L 1417 330.55443308497206 L 1418 329.4315822255147 L 1419 328.31223098633774 L 1420 327.1964333482834 L 1421 326.08424312082093 L 1422 324.9757139394518 L 1423 323.8708992631231 L 1424 322.7698523716494 L 1425 321.67262636314354 L 1426 320.5792741514557 L 1427 319.48984846362225 L 1428 318.4044018373214 L 1429 317.32298661834176 L 1430 316.2456549580564 L 1431 315.17245881090827 L 1432 314.1034499319049 L 1433 313.03867987412224 L 1434 311.97819998621856 L 1435 310.92206140995825 L 1436 309.87031507774566 L 1437 308.82301171016803 L 1438 307.78020181355066 L 1439 306.7419356775206 L 1440 305.70826337258154 L 1441 304.67923474769907 L 1442 303.65489942789674 L 1443 302.635306811863 L 1444 301.62050606956893 L 1445 300.610546139897 L 1446 299.60547572828034 L 1447 298.60534330435524 L 1448 297.61019709962267 L 1449 296.6200851051226 L 1450 295.63505506911974 L 1451 294.6551544948006 L 1452 293.680430637983 L 1453 292.7109305048369 L 1454 291.7467008496176 L 1455 290.7877881724106 L 1456 289.8342387168902 L 1457 288.8860984680882 L 1458 287.9434131501771 L 1459 287.00622822426465 L 1460 286.07458888620135 L 1461 285.14854006440146 L 1462 284.22812641767564 L 1463 283.313392333078 L 1464 282.4043819237643 L 1465 281.5011390268661 L 1466 280.603707201376 L 1467 279.7121297260466 L 1468 278.8264495973042 L 1469 277.94670952717473 L 1470 277.072951941224 L 1471 276.205218976512 L 1472 275.3435524795608 L 1473 274.4879940043357 L 1474 273.6385848102426 L 1475 272.79536586013757 L 1476 271.9583778183512 L 1477 271.127661048728 L 1478 270.30325561267944 L 1479 269.4852012672525 L 1480 268.6735374632118 L 1481 267.86830334313777 L 1482 267.06953773953796 L 1483 266.2772791729754 L 1484 265.4915658502106 L 1485 264.71243566235864 L 1486 263.9399261830624 L 1487 263.17407466668016 L 1488 262.41491804648933 L 1489 261.662492932905 L 1490 260.9168356117149 L 1491 260.1779820423286 L 1492 259.4459678560446 L 1493 258.72082835433093 L 1494 258.0025985071235 L 1495 257.29131295113905 L 1496 256.5870059882052 L 1497 255.8897115836062 L 1498 255.1994633644447 L 1499 254.5162946180206 L 1500 253.84023829022473 L 1501 253.17132698395133 L 1502 252.50959295752494 L 1503 251.85506812314503 L 1504 251.20778404534684 L 1505 250.56777193947937 L 1506 249.93506267019995 L 1507 249.3096867499857 L 1508 248.6916743376624 L 1509 248.08105523694923 L 1510 247.47785889502265 L 1511 246.8821144010955 L 1512 246.2938504850144 L 1513 245.71309551587427 L 1514 245.1398775006502 L 1515 244.57422408284677 L 1516 244.01616254116502 L 1517 243.46571978818704 L 1518 242.9229223690775 L 1519 242.38779646030443 L 1520 241.86036786837624 L 1521 241.3406620285973 L 1522 240.82870400384147 L 1523 240.3245184833432 L 1524 239.82812978150722 L 1525 239.33956183673564 L 1526 238.85883821027377 L 1527 238.38598208507352 L 1528 237.92101626467593 L 1529 237.46396317211108 L 1530 237.01484484881684 L 1531 236.57368295357594 L 1532 236.14049876147143 L 1533 235.71531316286072 L 1534 235.29814666236814 L 1535 234.88901937789618 L 1536 234.4879510396549 L 1537 234.09496098921107 L 1538 233.71006817855502 L 1539 233.3332911691867" stroke-linecap="round" stroke-linejoin="round" stroke-miterlimit="10" stroke-width="16"/></g></svg>